<svg xmlns="http://www.w3.org/2000/svg" viewBox="0 0 300 300">
  <ellipse cx="150" cy="275" rx="70" ry="10" fill="#000" opacity="0.3"/>
  <g transform="translate(150,165)">
    <ellipse cx="0" cy="40" rx="52" ry="58" fill="#16a34a"/>
    <circle cx="0" cy="-38" r="47" fill="#86efac"/>
    <circle cx="-18" cy="-44" r="12" fill="white"/>
    <circle cx="18" cy="-44" r="12" fill="white"/>
    <circle cx="-16" cy="-42" r="5" fill="#111"/>
    <circle cx="20" cy="-42" r="5" fill="#111"/>
    <path d="M-18 -20 Q0 -12 18 -20" stroke="#111" stroke-width="2" fill="none"/>
    <rect x="-70" y="0" width="28" height="40" fill="#374151" rx="2"/>
    <rect x="-38" y="5" width="28" height="40" fill="#374151" rx="2"/>
    <rect x="-6" y="0" width="28" height="40" fill="#374151" rx="2"/>
    <rect x="26" y="8" width="28" height="40" fill="#374151" rx="2"/>
    <rect x="54" y="3" width="28" height="40" fill="#374151" rx="2"/>
    <text x="-56" y="22" font-size="5" fill="#22c55e">W1</text>
    <text x="-24" y="27" font-size="5" fill="#22c55e">W2</text>
    <text x="8" y="22" font-size="5" fill="#22c55e">W3</text>
    <text x="40" y="27" font-size="5" fill="#22c55e">W4</text>
    <text x="68" y="22" font-size="5" fill="#22c55e">W5</text>
    <rect x="-20" y="-75" width="40" height="16" fill="#fbbf24" rx="3"/>
    <text x="0" y="-64" text-anchor="middle" font-size="7" fill="#111">FREE AIRDROP</text>
  </g>
  <text x="150" y="28" text-anchor="middle" font-family="Comic Sans MS,cursive" font-size="14" fill="#4ade80" font-weight="bold">AIRDROP ANDY</text>
</svg>