<svg xmlns="http://www.w3.org/2000/svg" viewBox="0 0 300 300">
  <ellipse cx="150" cy="275" rx="70" ry="10" fill="#000" opacity="0.3"/>
  <g transform="translate(150,168)">
    <ellipse cx="0" cy="40" rx="55" ry="60" fill="#78716c"/>
    <ellipse cx="-24" cy="92" rx="16" ry="34" fill="#57534e"/>
    <ellipse cx="24" cy="92" rx="16" ry="34" fill="#57534e"/>
    <circle cx="0" cy="-38" r="50" fill="#fde68a"/>
    <ellipse cx="0" cy="-30" rx="48" ry="20" fill="#d6d3d1"/>
    <ellipse cx="-18" cy="-42" rx="10" ry="8" fill="white"/>
    <ellipse cx="18" cy="-42" rx="10" ry="8" fill="white"/>
    <circle cx="-18" cy="-42" r="4" fill="#111"/>
    <circle cx="18" cy="-42" r="4" fill="#111"/>
    <path d="M-12 -22 Q0 -16 12 -22" stroke="#111" stroke-width="2" fill="none"/>
    <rect x="-55" y="10" width="45" height="60" fill="#f5f5f4" transform="rotate(-5)" rx="2"/>
    <text x="-48" y="28" font-size="6" fill="#111" transform="rotate(-5)">BITCOIN</text>
    <text x="-50" y="40" font-size="6" fill="#ef4444" transform="rotate(-5)">IS DEAD</text>
    <text x="-48" y="52" font-size="5" fill="#78716c" transform="rotate(-5)">-WSJ 2013</text>
    <rect x="15" y="15" width="50" height="35" fill="#22c55e" rx="3"/>
    <text x="40" y="32" text-anchor="middle" font-size="7" fill="white">0.5%</text>
    <text x="40" y="44" text-anchor="middle" font-size="6" fill="white">APY</text>
    <text x="40" y="55" text-anchor="middle" font-size="5" fill="#bbf7d0">SAVINGS</text>
  </g>
  <text x="150" y="28" text-anchor="middle" font-family="Comic Sans MS,cursive" font-size="14" fill="#d6d3d1" font-weight="bold">GRANDPA BOOMER</text>
</svg>