<svg xmlns="http://www.w3.org/2000/svg" viewBox="0 0 300 300">
  <ellipse cx="150" cy="275" rx="65" ry="10" fill="#000" opacity="0.3"/>
  <g transform="translate(150,168)">
    <ellipse cx="0" cy="38" rx="50" ry="58" fill="#0ea5e9"/>
    <circle cx="0" cy="-38" r="47" fill="#bae6fd"/>
    <ellipse cx="-18" cy="-44" rx="14" ry="18" fill="white"/>
    <ellipse cx="18" cy="-44" rx="14" ry="18" fill="white"/>
    <circle cx="-16" cy="-40" r="5" fill="#111"/>
    <circle cx="20" cy="-40" r="5" fill="#111"/>
    <path d="M-20 -18 Q0 -8 20 -18" stroke="#111" stroke-width="2" fill="none"/>
    <rect x="45" y="-10" width="35" height="70" fill="#64748b" rx="6"/>
    <rect x="50" y="-5" width="25" height="20" fill="#22d3ee" rx="3"/>
    <text x="62" y="8" text-anchor="middle" font-size="6" fill="#0c4a6e" font-weight="bold">COPIUM</text>
    <line x1="62" y1="15" x2="20" y2="-5" stroke="#94a3b8" stroke-width="3"/>
    <ellipse cx="15" cy="-8" rx="8" ry="5" fill="#22d3ee" opacity="0.6"/>
    <ellipse cx="5" cy="-15" rx="6" ry="4" fill="#22d3ee" opacity="0.4"/>
    <rect x="-55" y="50" width="50" height="30" fill="#1e3a5f" rx="3"/>
    <polyline points="-50,70 -35,55 -20,65 -5,45" fill="none" stroke="#22c55e" stroke-width="2"/>
    <text x="-30" y="62" text-anchor="middle" font-size="6" fill="#22c55e">recovery</text>
    <text x="-30" y="74" text-anchor="middle" font-size="5" fill="#86efac">any day now</text>
  </g>
  <text x="150" y="28" text-anchor="middle" font-family="Comic Sans MS,cursive" font-size="15" fill="#67e8f9" font-weight="bold">COPIUM CARL</text>
</svg>