<svg xmlns="http://www.w3.org/2000/svg" viewBox="0 0 300 300">
  <ellipse cx="150" cy="278" rx="90" ry="12" fill="#000" opacity="0.3"/>
  <!-- shared body -->
  <ellipse cx="150" cy="210" rx="70" ry="45" fill="#64748b"/>
  <!-- dog head -->
  <g transform="translate(85,145)">
    <circle cx="0" cy="0" r="38" fill="#e8c48a"/>
    <ellipse cx="-12" cy="-8" rx="8" ry="10" fill="white"/>
    <ellipse cx="12" cy="-8" rx="8" ry="10" fill="white"/>
    <circle cx="-10" cy="-6" r="4" fill="#111"/>
    <circle cx="14" cy="-6" r="4" fill="#111"/>
    <text x="-18" y="45" font-family="Arial" font-size="8" fill="#fbbf24">DOG</text>
  </g>
  <!-- frog head -->
  <g transform="translate(150,130)">
    <ellipse cx="0" cy="0" rx="40" ry="36" fill="#4ade80"/>
    <ellipse cx="-14" cy="-6" rx="10" ry="7" fill="#bbf7d0"/>
    <ellipse cx="14" cy="-6" rx="10" ry="7" fill="#bbf7d0"/>
    <ellipse cx="-14" cy="-5" rx="6" ry="3" fill="#14532d"/>
    <ellipse cx="14" cy="-5" rx="6" ry="3" fill="#14532d"/>
    <line x1="-10" y1="10" x2="10" y2="10" stroke="#14532d" stroke-width="2"/>
    <text x="-16" y="50" font-family="Arial" font-size="8" fill="#4ade80">FROG</text>
  </g>
  <!-- cat head -->
  <g transform="translate(215,145)">
    <circle cx="0" cy="0" r="36" fill="#fcd34d"/>
    <path d="M-22 -15 L-28 -40 L-8 -22 Z" fill="#fbbf24"/>
    <path d="M22 -15 L28 -40 L8 -22 Z" fill="#fbbf24"/>
    <ellipse cx="0" cy="8" rx="16" ry="18" fill="#111"/>
    <ellipse cx="0" cy="10" rx="10" ry="11" fill="#ef4444"/>
    <text x="-14" y="48" font-family="Arial" font-size="8" fill="#fbbf24">CAT</text>
  </g>
  <rect x="95" y="235" width="110" height="28" fill="#1e293b" rx="4"/>
  <text x="108" y="253" font-family="Arial Black" font-size="9" fill="#94a3b8">TODO: original</text>
  <text x="150" y="28" text-anchor="middle" font-family="Comic Sans MS,cursive" font-size="13" fill="#94a3b8" font-weight="bold">COPYCAT COUNCIL</text>
</svg>
