<svg xmlns="http://www.w3.org/2000/svg" viewBox="0 0 300 300">
  <ellipse cx="150" cy="275" rx="75" ry="12" fill="#000" opacity="0.3"/>
  <g transform="translate(150,170)">
    <ellipse cx="0" cy="40" rx="52" ry="58" fill="#c4a574"/>
    <ellipse cx="-22" cy="95" rx="16" ry="32" fill="#a67c52"/>
    <ellipse cx="22" cy="95" rx="16" ry="32" fill="#a67c52"/>
    <circle cx="0" cy="-35" r="52" fill="#e8c48a"/>
    <ellipse cx="-28" cy="-70" rx="14" ry="20" fill="#c4a574"/>
    <ellipse cx="28" cy="-70" rx="14" ry="20" fill="#c4a574"/>
    <ellipse cx="-16" cy="-42" rx="12" ry="14" fill="white"/>
    <ellipse cx="16" cy="-42" rx="12" ry="14" fill="white"/>
    <circle cx="-14" cy="-40" r="5" fill="#111"/>
    <circle cx="18" cy="-40" r="5" fill="#111"/>
    <ellipse cx="0" cy="-22" rx="10" ry="7" fill="#5c4033"/>
    <path d="M-14 -8 Q0 4 14 -8" stroke="#111" stroke-width="3" fill="none"/>
    <rect x="-48" y="-55" width="96" height="14" fill="#1e293b" rx="2" transform="rotate(-6)"/>
    <circle cx="-38" cy="-48" r="10" fill="#334155" transform="rotate(-6)"/>
    <circle cx="38" cy="-48" r="10" fill="#334155" transform="rotate(-6)"/>
    <rect x="40" y="-10" width="50" height="36" fill="#fef08a" stroke="#ca8a04" stroke-width="2" rx="4"/>
    <text x="48" y="5" font-family="Comic Sans MS,cursive" font-size="11" fill="#854d0e" font-weight="bold">wow</text>
    <text x="46" y="18" font-family="Comic Sans MS,cursive" font-size="9" fill="#854d0e">such</text>
  </g>
  <text x="150" y="26" text-anchor="middle" font-family="Comic Sans MS,cursive" font-size="14" fill="#fbbf24" font-weight="bold">SIR DOOGE</text>
</svg>
