<svg xmlns="http://www.w3.org/2000/svg" viewBox="0 0 300 300">
  <ellipse cx="150" cy="275" rx="75" ry="11" fill="#000" opacity="0.3"/>
  <g transform="translate(150,170)">
    <ellipse cx="0" cy="42" rx="54" ry="60" fill="#c4a574"/>
    <ellipse cx="-24" cy="98" rx="16" ry="34" fill="#8b6914"/>
    <ellipse cx="24" cy="98" rx="16" ry="34" fill="#8b6914"/>
    <circle cx="0" cy="-30" r="52" fill="#e8c48a"/>
    <ellipse cx="-16" cy="-40" rx="12" ry="14" fill="white"/>
    <ellipse cx="16" cy="-40" rx="12" ry="14" fill="white"/>
    <circle cx="-14" cy="-38" r="6" fill="#111"/>
    <circle cx="18" cy="-38" r="6" fill="#111"/>
    <path d="M-18 -8 Q0 6 18 -8" stroke="#111" stroke-width="3" fill="none"/>
    <!-- cardboard viking helmet -->
    <ellipse cx="0" cy="-70" rx="46" ry="18" fill="#a8a29e"/>
    <rect x="-40" y="-95" width="80" height="30" fill="#78716c" rx="4"/>
    <path d="M-50 -85 L-70 -120 L-40 -90 Z" fill="#d6d3d1" stroke="#57534e"/>
    <path d="M50 -85 L70 -120 L40 -90 Z" fill="#d6d3d1" stroke="#57534e"/>
    <text x="-28" y="-78" font-family="Arial Black" font-size="8" fill="#fef3c7">HORNS</text>
    <!-- war horn -->
    <ellipse cx="60" cy="20" rx="22" ry="10" fill="#ca8a04" transform="rotate(-20)"/>
    <text x="-80" y="-50" font-family="Comic Sans MS,cursive" font-size="11" fill="#f97316" font-weight="bold">RAA!</text>
  </g>
  <text x="150" y="26" text-anchor="middle" font-family="Comic Sans MS,cursive" font-size="14" fill="#f97316" font-weight="bold">FLOKIR THE LOUD</text>
</svg>
