<svg xmlns="http://www.w3.org/2000/svg" viewBox="0 0 300 300">
  <ellipse cx="150" cy="275" rx="72" ry="11" fill="#000" opacity="0.3"/>
  <g transform="translate(150,175)">
    <ellipse cx="0" cy="38" rx="50" ry="56" fill="#d6b48a"/>
    <ellipse cx="-20" cy="92" rx="15" ry="30" fill="#b8956c"/>
    <ellipse cx="20" cy="92" rx="15" ry="30" fill="#b8956c"/>
    <circle cx="0" cy="-32" r="50" fill="#f5d0a9"/>
    <ellipse cx="-30" cy="-68" rx="12" ry="18" fill="#d6b48a"/>
    <ellipse cx="30" cy="-68" rx="12" ry="18" fill="#d6b48a"/>
    <ellipse cx="-15" cy="-38" rx="11" ry="13" fill="white"/>
    <ellipse cx="15" cy="-38" rx="11" ry="13" fill="white"/>
    <circle cx="-13" cy="-36" r="5" fill="#111"/>
    <circle cx="17" cy="-36" r="5" fill="#111"/>
    <ellipse cx="0" cy="-18" rx="9" ry="6" fill="#5c4033"/>
    <path d="M-16 -5 Q0 8 16 -5" stroke="#111" stroke-width="2.5" fill="none"/>
    <!-- big knit hat -->
    <ellipse cx="0" cy="-78" rx="48" ry="22" fill="#e11d48"/>
    <rect x="-42" y="-100" width="84" height="28" rx="10" fill="#be123c"/>
    <circle cx="0" cy="-108" r="12" fill="#fda4af"/>
    <text x="-36" y="-84" font-family="Arial Black" font-size="9" fill="white">FREE HAT</text>
    <rect x="48" y="10" width="40" height="28" fill="#fef08a" stroke="#ca8a04" stroke-width="2" rx="3"/>
    <text x="52" y="28" font-family="Arial" font-size="8" fill="#854d0e">MERCH</text>
  </g>
  <text x="150" y="26" text-anchor="middle" font-family="Comic Sans MS,cursive" font-size="14" fill="#fb7185" font-weight="bold">WIFLESS WALTER</text>
</svg>
