<svg xmlns="http://www.w3.org/2000/svg" viewBox="0 0 300 300">
  <ellipse cx="150" cy="275" rx="72" ry="10" fill="#000" opacity="0.4"/>
  <polygon points="150,60 120,120 180,120" fill="#fbbf24" opacity="0.6"/>
  <polygon points="150,80 100,160 200,160" fill="#ef4444" opacity="0.5"/>
  <text x="150" y="100" text-anchor="middle" font-size="14" fill="#fef08a" font-weight="bold">LIQUIDATED</text>
  <g transform="translate(150,175)">
    <ellipse cx="0" cy="35" rx="48" ry="55" fill="#dc2626"/>
    <circle cx="0" cy="-35" r="45" fill="#fecaca"/>
    <ellipse cx="-18" cy="-42" rx="16" ry="20" fill="white"/>
    <ellipse cx="18" cy="-42" rx="16" ry="20" fill="white"/>
    <circle cx="-14" cy="-38" r="3" fill="#111"/>
    <circle cx="22" cy="-38" r="3" fill="#111"/>
    <path d="M-22 -15 Q0 5 22 -15" stroke="#111" stroke-width="3" fill="none"/>
    <ellipse cx="-40" cy="20" rx="12" ry="18" fill="#fecaca" transform="rotate(-30)"/>
    <ellipse cx="40" cy="20" rx="12" ry="18" fill="#fecaca" transform="rotate(30)"/>
    <rect x="-25" y="-80" width="50" height="22" fill="#fbbf24" rx="4"/>
    <text x="0" y="-65" text-anchor="middle" font-size="11" fill="#111" font-weight="bold">100x</text>
    <text x="0" y="75" text-anchor="middle" font-size="7" fill="#fca5a5">margin: $4.20</text>
  </g>
  <text x="150" y="28" text-anchor="middle" font-family="Comic Sans MS,cursive" font-size="14" fill="#f87171" font-weight="bold">LEVERAGE LENNY</text>
</svg>