<svg xmlns="http://www.w3.org/2000/svg" viewBox="0 0 300 300">
  <ellipse cx="150" cy="275" rx="70" ry="10" fill="#000" opacity="0.3"/>
  <g transform="translate(150,175)">
    <ellipse cx="0" cy="38" rx="44" ry="50" fill="#e2e8f0"/>
    <ellipse cx="-16" cy="88" rx="12" ry="24" fill="#94a3b8"/>
    <ellipse cx="16" cy="88" rx="12" ry="24" fill="#94a3b8"/>
    <circle cx="0" cy="-30" r="46" fill="#f1f5f9"/>
    <path d="M-32 -55 L-42 -88 L-12 -62 Z" fill="#cbd5e1"/>
    <path d="M32 -55 L42 -88 L12 -62 Z" fill="#cbd5e1"/>
    <ellipse cx="-14" cy="-38" rx="10" ry="14" fill="#38bdf8"/>
    <ellipse cx="14" cy="-38" rx="10" ry="14" fill="#38bdf8"/>
    <circle cx="-12" cy="-36" r="4" fill="#111"/>
    <circle cx="16" cy="-36" r="4" fill="#111"/>
    <path d="M-10 -12 Q0 -4 10 -12" stroke="#64748b" stroke-width="2" fill="none"/>
    <ellipse cx="0" cy="-18" rx="6" ry="4" fill="#f9a8d4"/>
    <rect x="40" y="-20" width="55" height="40" fill="#0ea5e9" rx="4"/>
    <text x="46" y="-2" font-family="Arial" font-size="8" fill="white">BRIDGE</text>
    <text x="48" y="12" font-family="Arial" font-size="8" fill="white">FAILED</text>
    <text x="-85" y="-40" font-family="Comic Sans MS,cursive" font-size="10" fill="#38bdf8">multi-chain</text>
  </g>
  <text x="150" y="26" text-anchor="middle" font-family="Comic Sans MS,cursive" font-size="14" fill="#38bdf8" font-weight="bold">MEWLING MAX</text>
</svg>
