<svg xmlns="http://www.w3.org/2000/svg" viewBox="0 0 300 300">
  <ellipse cx="150" cy="275" rx="70" ry="10" fill="#000" opacity="0.3"/>
  <g transform="translate(150,170)">
    <ellipse cx="0" cy="42" rx="48" ry="55" fill="#334155"/>
    <ellipse cx="-18" cy="95" rx="14" ry="30" fill="#1e293b"/>
    <ellipse cx="18" cy="95" rx="14" ry="30" fill="#1e293b"/>
    <circle cx="0" cy="-30" r="48" fill="#fde68a"/>
    <rect x="-40" y="-85" width="80" height="18" fill="#0f172a" rx="3"/>
    <text x="-32" y="-72" font-family="Arial Black" font-size="9" fill="#a78bfa">AURA+</text>
    <ellipse cx="-15" cy="-38" rx="11" ry="13" fill="white"/>
    <ellipse cx="15" cy="-38" rx="11" ry="13" fill="white"/>
    <circle cx="-13" cy="-36" r="5" fill="#111"/>
    <circle cx="17" cy="-36" r="5" fill="#111"/>
    <path d="M-14 -10 Q0 4 14 -10" stroke="#111" stroke-width="2.5" fill="none"/>
    <path d="M-8 -18 L-2 -22 L4 -18" stroke="#a78bfa" stroke-width="2" fill="none"/>
    <rect x="45" y="-15" width="36" height="50" fill="#1e293b" rx="4" stroke="#a78bfa"/>
    <text x="50" y="5" font-family="Arial" font-size="7" fill="#c4b5fd">SELFIE</text>
    <text x="52" y="18" font-family="Arial" font-size="7" fill="#c4b5fd">MIRROR</text>
    <circle cx="-60" cy="-40" r="22" fill="none" stroke="#c084fc" stroke-width="3" opacity="0.6"/>
    <circle cx="-60" cy="-40" r="14" fill="none" stroke="#e9d5ff" stroke-width="2" opacity="0.5"/>
  </g>
  <text x="150" y="26" text-anchor="middle" font-family="Comic Sans MS,cursive" font-size="14" fill="#c084fc" font-weight="bold">MOGGER MIKE</text>
</svg>
