<svg xmlns="http://www.w3.org/2000/svg" viewBox="0 0 300 300">
  <ellipse cx="150" cy="275" rx="68" ry="10" fill="#000" opacity="0.3"/>
  <g transform="translate(150,168)">
    <ellipse cx="0" cy="38" rx="52" ry="58" fill="#64748b"/>
    <rect x="-30" y="-5" width="60" height="8" fill="#94a3b8"/>
    <rect x="-25" y="3" width="50" height="6" fill="#94a3b8"/>
    <circle cx="0" cy="-40" r="47" fill="#d6d3d1"/>
    <!-- dead inside eyes -->
    <ellipse cx="-18" cy="-42" rx="12" ry="14" fill="white"/>
    <ellipse cx="18" cy="-42" rx="12" ry="14" fill="white"/>
    <circle cx="-18" cy="-40" r="4" fill="#111"/>
    <circle cx="18" cy="-40" r="4" fill="#111"/>
    <!-- flat mouth -->
    <line x1="-15" y1="-18" x2="15" y2="-18" stroke="#111" stroke-width="3"/>
    <!-- tie -->
    <polygon points="0,-5 -8,40 0,55 8,40" fill="#dc2626"/>
    <!-- holding laptop with NGMI -->
    <rect x="-45" y="20" width="90" height="55" fill="#374151" rx="4"/>
    <rect x="-40" y="25" width="80" height="40" fill="#111" rx="2"/>
    <text x="0" y="42" text-anchor="middle" font-size="14" fill="#ef4444" font-family="Arial Black">NGMI</text>
    <text x="0" y="55" text-anchor="middle" font-size="6" fill="#6b7280">Q4 projections</text>
    <!-- coffee mug -->
    <rect x="50" y="30" width="20" height="25" fill="#f5f5f4" rx="2"/>
    <text x="60" y="47" text-anchor="middle" font-size="6" fill="#78716c">sad</text>
    <!-- receding hairline -->
    <path d="M-40 -75 Q0 -95 40 -75 L40 -60 Q0 -50 -40 -60 Z" fill="#57534e"/>
  </g>
  <text x="150" y="28" text-anchor="middle" font-family="Comic Sans MS,cursive" font-size="15" fill="#94a3b8" font-weight="bold">NGMI NIGEL</text>
</svg>