<svg xmlns="http://www.w3.org/2000/svg" viewBox="0 0 300 300">
  <ellipse cx="150" cy="275" rx="65" ry="10" fill="#000" opacity="0.3"/>
  <g transform="translate(150,170)">
    <ellipse cx="0" cy="40" rx="50" ry="60" fill="#6366f1"/>
    <ellipse cx="-22" cy="90" rx="16" ry="32" fill="#4f46e5"/>
    <ellipse cx="22" cy="90" rx="16" ry="32" fill="#4f46e5"/>
    <circle cx="0" cy="-35" r="48" fill="#fecdd3"/>
    <ellipse cx="-18" cy="-40" rx="14" ry="8" fill="white"/>
    <ellipse cx="18" cy="-40" rx="14" ry="8" fill="white"/>
    <line x1="-28" y1="-42" x2="-8" y2="-42" stroke="#111" stroke-width="3"/>
    <line x1="8" y1="-42" x2="28" y2="-42" stroke="#111" stroke-width="3"/>
    <path d="M-15 -18 Q0 -8 15 -18" stroke="#111" stroke-width="3" fill="none"/>
    <ellipse cx="-55" cy="15" rx="22" ry="12" fill="#fecdd3" transform="rotate(-10)"/>
    <ellipse cx="55" cy="15" rx="22" ry="12" fill="#fecdd3" transform="rotate(10)"/>
    <rect x="-50" y="0" width="100" height="18" fill="#818cf8" rx="8"/>
    <circle cx="-18" cy="-40" r="18" fill="none" stroke="#111" stroke-width="3"/>
    <circle cx="18" cy="-40" r="18" fill="none" stroke="#111" stroke-width="3"/>
    <circle cx="0" cy="-78" r="20" fill="#78350f"/>
    <ellipse cx="0" cy="-55" rx="50" ry="15" fill="#78350f"/>
    <rect x="-40" y="55" width="80" height="30" fill="#fef3c7" rx="3"/>
    <text x="0" y="75" text-anchor="middle" font-size="8" fill="#92400e" font-family="Arial">PONZI SCHEME</text>
  </g>
  <text x="150" y="28" text-anchor="middle" font-family="Comic Sans MS,cursive" font-size="13" fill="#c4b5fd" font-weight="bold">KAREN NON-BELIEVER</text>
</svg>