<svg xmlns="http://www.w3.org/2000/svg" viewBox="0 0 300 300">
  <ellipse cx="150" cy="275" rx="60" ry="10" fill="#000" opacity="0.3"/>
  <g transform="translate(150,165)">
    <ellipse cx="0" cy="35" rx="48" ry="58" fill="#38bdf8"/>
    <circle cx="0" cy="-38" r="46" fill="#fef08a"/>
    <!-- crying googly eyes -->
    <circle cx="-18" cy="-45" r="16" fill="white"/>
    <circle cx="18" cy="-45" r="16" fill="white"/>
    <circle cx="-14" cy="-42" r="8" fill="#111"/>
    <circle cx="22" cy="-42" r="8" fill="#111"/>
    <circle cx="-11" cy="-45" r="3" fill="white"/>
    <circle cx="25" cy="-45" r="3" fill="white"/>
    <!-- tears -->
    <ellipse cx="-22" cy="-25" rx="5" ry="12" fill="#60a5fa"/>
    <ellipse cx="24" cy="-25" rx="5" ry="12" fill="#60a5fa"/>
    <!-- wobbly lip -->
    <path d="M-18 -15 Q0 -5 18 -15 Q0 -20 -18 -15" fill="#f87171"/>
    <!-- literal paper hands -->
    <rect x="-75" y="5" width="40" height="55" fill="#fafaf9" stroke="#d4d4d4" stroke-width="2" rx="3" transform="rotate(-15)"/>
    <line x1="-70" y1="15" x2="-40" y2="15" stroke="#d4d4d4"/>
    <line x1="-70" y1="25" x2="-40" y2="25" stroke="#d4d4d4"/>
    <line x1="-70" y1="35" x2="-40" y2="35" stroke="#d4d4d4"/>
    <rect x="38" y="5" width="40" height="55" fill="#fafaf9" stroke="#d4d4d4" stroke-width="2" rx="3" transform="rotate(15)"/>
    <line x1="43" y1="15" x2="73" y2="15" stroke="#d4d4d4"/>
    <line x1="43" y1="25" x2="73" y2="25" stroke="#d4d4d4"/>
    <line x1="43" y1="35" x2="73" y2="35" stroke="#d4d4d4"/>
    <!-- tiny dip chart -->
    <rect x="-25" y="60" width="50" height="35" fill="#1e3a5f" rx="4"/>
    <polyline points="-20,85 -10,75 0,80 10,70 20,75" fill="none" stroke="#ef4444" stroke-width="2"/>
    <text x="0" y="72" text-anchor="middle" font-size="6" fill="#ef4444">-0.3%</text>
    <text x="0" y="92" text-anchor="middle" font-size="5" fill="#fca5a5">PANIC</text>
  </g>
  <text x="150" y="28" text-anchor="middle" font-family="Comic Sans MS,cursive" font-size="14" fill="#7dd3fc" font-weight="bold">PAPER HANDS PETE</text>
</svg>