<svg xmlns="http://www.w3.org/2000/svg" viewBox="0 0 300 300">
  <ellipse cx="150" cy="275" rx="75" ry="10" fill="#000" opacity="0.4"/>
  <g transform="translate(150,165)">
    <!-- trench coat -->
    <path d="M-60 30 L-70 120 L70 120 L60 30 Z" fill="#292524"/>
    <ellipse cx="0" cy="35" rx="55" ry="50" fill="#44403c"/>
    <circle cx="0" cy="-40" r="50" fill="#a8a29e"/>
    <!-- shifty narrow eyes -->
    <ellipse cx="-18" cy="-42" rx="16" ry="6" fill="white"/>
    <ellipse cx="18" cy="-42" rx="16" ry="6" fill="white"/>
    <ellipse cx="-16" cy="-42" rx="10" ry="4" fill="#111"/>
    <ellipse cx="20" cy="-42" rx="10" ry="4" fill="#111"/>
    <!-- creepy grin -->
    <path d="M-25 -18 Q0 0 25 -18" stroke="#111" stroke-width="3" fill="none"/>
    <path d="M-20 -16 L-15 -10 M-5 -14 L0 -8 M10 -14 L15 -8 M20 -16 L25 -10" stroke="#111" stroke-width="2"/>
    <!-- fedora -->
    <ellipse cx="0" cy="-82" rx="55" ry="10" fill="#1c1917"/>
    <rect x="-30" y="-105" width="60" height="25" fill="#1c1917" rx="3"/>
    <!-- dollar signs in eyes reflection -->
    <text x="-18" y="-38" text-anchor="middle" font-size="10" fill="#22c55e" font-weight="bold">$</text>
    <text x="18" y="-38" text-anchor="middle" font-size="10" fill="#22c55e" font-weight="bold">$</text>
    <!-- hands rubbing together -->
    <ellipse cx="-30" cy="25" rx="15" ry="12" fill="#a8a29e"/>
    <ellipse cx="30" cy="25" rx="15" ry="12" fill="#a8a29e"/>
    <!-- rug under feet -->
    <rect x="-50" y="115" width="100" height="15" fill="#dc2626" rx="3"/>
    <text x="0" y="126" text-anchor="middle" font-size="9" fill="white" font-family="Arial Black">RUG</text>
    <!-- fake verified badge -->
    <circle cx="40" cy="-70" r="14" fill="#3b82f6"/>
    <path d="M34 -70 L38 -66 L46 -74" stroke="white" stroke-width="2" fill="none"/>
    <text x="40" y="-55" text-anchor="middle" font-size="5" fill="#93c5fd">FAKE</text>
  </g>
  <text x="150" y="28" text-anchor="middle" font-family="Comic Sans MS,cursive" font-size="15" fill="#ef4444" font-weight="bold">RUGGY McPULL</text>
</svg>