<svg xmlns="http://www.w3.org/2000/svg" viewBox="0 0 300 300">
  <rect x="20" y="200" width="260" height="70" fill="#1e1b4b"/>
  <ellipse cx="150" cy="275" rx="65" ry="10" fill="#000" opacity="0.3"/>
  <g transform="translate(150,155)">
    <ellipse cx="0" cy="45" rx="48" ry="55" fill="#ec4899"/>
    <circle cx="0" cy="-35" r="46" fill="#fcd34d"/>
    <circle cx="-18" cy="-40" r="14" fill="white"/>
    <circle cx="18" cy="-40" r="14" fill="white"/>
    <text x="-18" y="-36" text-anchor="middle" font-size="12" fill="#22c55e">$</text>
    <text x="18" y="-36" text-anchor="middle" font-size="12" fill="#22c55e">$</text>
    <ellipse cx="0" cy="-12" rx="22" ry="14" fill="#111"/>
    <ellipse cx="0" cy="-10" rx="16" ry="8" fill="#f472b6"/>
    <ellipse cx="-55" cy="10" rx="14" ry="10" fill="#fcd34d" transform="rotate(-20)"/>
    <ellipse cx="55" cy="10" rx="14" ry="10" fill="#fcd34d" transform="rotate(20)"/>
    <rect x="-30" y="-85" width="60" height="20" fill="#111" rx="3"/>
    <text x="0" y="-72" text-anchor="middle" font-size="8" fill="#f472b6">#AD #SPON</text>
    <rect x="-40" y="65" width="80" height="22" fill="#fbbf24" rx="4"/>
    <text x="0" y="80" text-anchor="middle" font-size="8" fill="#111" font-weight="bold">NOT FINANCIAL ADVICE</text>
    <text x="0" y="92" text-anchor="middle" font-size="6" fill="#92400e">(is financial advice)</text>
  </g>
  <text x="60" y="230" font-size="28" fill="#fbbf24">🚗</text>
  <text x="200" y="230" font-size="20" fill="#a78bfa">✨</text>
  <text x="150" y="28" text-anchor="middle" font-family="Comic Sans MS,cursive" font-size="14" fill="#f472b6" font-weight="bold">SHILLIAM SHILLSON</text>
</svg>